# xmcd CD database file
#
# Track frame offsets:
#	150
#	24005
#	53720
#	82182
#	113935
#	133062
#	159320
#	178695
#	215725
#	244297
#
# Disc length: 3533 seconds
#
# Revision: 2
# Processed by: cddbd v1.5.1PL0 Copyright (c) Steve Scherf et al.
# Submitted via: CDex 1.51
#
DISCID=870dcb0a
DTITLE=Wes Montgomery - Portrait Of Wes
DYEAR=1963
DGENRE=Jazz
TTITLE0=Freddie The Freeloader
TTITLE1=Lolita
TTITLE2=Blues Riff
TTITLE3=Dangerous
TTITLE4=Yesterday's Child
TTITLE5=Moanin'
TTITLE6=Blues Riff (Take 7)
TTITLE7=Blues Riff (Take 8)
TTITLE8=Moanin' (Take 7)
TTITLE9=Moanin' (Take 10)
EXTD=YEAR: 1963
EXTT0=
EXTT1=
EXTT2=
EXTT3=
EXTT4=
EXTT5=
EXTT6=
EXTT7=
EXTT8=
EXTT9=
PLAYORDER=
